<svg xmlns="http://www.w3.org/2000/svg" width="382" height="424" viewBox="0 0 382 424">
<g>
<path d="M 184.50 350.98 C153.07,348.89 124.95,336.05 102.50,313.53 C75.44,286.39 62.04,251.53 62.01,208.19 C61.99,183.25 67.15,159.72 77.00,139.81 C95.40,102.62 127.29,77.97 168.92,68.77 C177.00,66.98 181.70,66.65 199.00,66.69 C216.50,66.72 220.96,67.05 229.46,68.96 C248.03,73.14 267.34,82.08 281.69,93.15 C289.73,99.35 301.80,112.55 308.11,122.05 C313.60,130.31 320.00,142.04 320.00,143.85 C320.00,144.78 308.21,149.57 307.59,148.88 C307.40,148.67 306.23,146.48 305.00,144.00 C294.59,123.18 277.28,105.27 256.72,94.07 C237.83,83.78 224.25,80.66 198.00,80.62 C174.09,80.57 162.49,82.99 144.33,91.79 C109.51,108.66 86.86,139.65 79.37,180.68 C77.32,191.91 77.05,222.11 78.90,234.00 C83.32,262.37 94.58,285.53 112.96,304.04 C129.72,320.92 151.18,332.01 175.00,336.08 C185.05,337.80 208.49,337.82 219.00,336.11 C235.69,333.41 255.00,325.82 268.50,316.66 C276.27,311.39 289.40,298.28 295.31,289.91 C300.79,282.13 307.85,268.13 310.90,259.00 C312.86,253.15 313.05,250.76 312.79,235.00 L 312.50 217.50 L 256.55 217.24 C213.32,217.04 200.43,216.70 199.82,215.74 C198.88,214.27 198.75,207.82 199.61,205.58 C200.15,204.16 206.77,204.00 264.11,204.00 L 328.00 204.00 L 328.00 229.31 L 328.00 254.62 L 325.10 263.06 C321.52,273.51 318.93,279.27 314.23,287.28 C302.65,307.01 285.25,324.09 265.69,334.91 C241.56,348.26 216.96,353.13 184.50,350.98 Z" fill="rgba(0,0,0,1)"/>
</g>
</svg>